<?xml version="1.0" encoding="utf-8"?>
<!-- Generator: Adobe Illustrator 26.0.1, SVG Export Plug-In . SVG Version: 6.00 Build 0)  -->
<svg version="1.1" xmlns="http://www.w3.org/2000/svg" xmlns:xlink="http://www.w3.org/1999/xlink" x="0px" y="0px"
	 viewBox="0 0 300.5 297.4" style="enable-background:new 0 0 300.5 297.4;" xml:space="preserve">
<style type="text/css">
	.st0{fill-rule:evenodd;clip-rule:evenodd;fill:#0796DE;}
	.st1{fill-rule:evenodd;clip-rule:evenodd;fill:none;stroke:#20558D;stroke-width:14;stroke-miterlimit:10;}
	.st2{opacity:0.25;}
	.st3{fill-rule:evenodd;clip-rule:evenodd;fill:#215E95;}
	.st4{fill:#FFFFFF;}
</style>
<g id="Container">
	<path class="st0" d="M275.3,281.8h-250c-4.4,0-8-3.6-8-8v-250c0-4.4,3.6-8,8-8h250c4.4,0,8,3.6,8,8v250
		C283.3,278.2,279.7,281.8,275.3,281.8z"/>
</g>
<g id="Container_x5F_Frame">
	<path class="st1" d="M271.2,281.8H29.3c-6.7,0-12.1-5.4-12.1-12.1V27.8c0-6.7,5.4-12.1,12.1-12.1h241.9c6.7,0,12.1,5.4,12.1,12.1
		v241.9C283.3,276.3,277.9,281.8,271.2,281.8z"/>
</g>
<g id="Container_x5F_Details" class="st2">
	<g>
		<path class="st3" d="M55.3,264.1H38.5c-0.9,0-1.6-0.7-1.6-1.6V34.9c0-0.9,0.7-1.6,1.6-1.6h16.8c0.9,0,1.6,0.7,1.6,1.6v227.7
			C56.9,263.4,56.2,264.1,55.3,264.1z"/>
		<path class="st3" d="M89.5,264.1H72.7c-0.9,0-1.6-0.7-1.6-1.6V34.9c0-0.9,0.7-1.6,1.6-1.6h16.8c0.9,0,1.6,0.7,1.6,1.6v227.7
			C91.1,263.4,90.4,264.1,89.5,264.1z"/>
		<path class="st3" d="M123.5,264.1h-16.8c-0.9,0-1.6-0.7-1.6-1.6V34.9c0-0.9,0.7-1.6,1.6-1.6h16.8c0.9,0,1.6,0.7,1.6,1.6v227.7
			C125.1,263.4,124.4,264.1,123.5,264.1z"/>
		<path class="st3" d="M158.7,264.1h-16.8c-0.9,0-1.6-0.7-1.6-1.6V34.9c0-0.9,0.7-1.6,1.6-1.6h16.8c0.9,0,1.6,0.7,1.6,1.6v227.7
			C160.3,263.4,159.6,264.1,158.7,264.1z"/>
		<path class="st3" d="M192.8,264.1h-16.8c-0.9,0-1.6-0.7-1.6-1.6V34.9c0-0.9,0.7-1.6,1.6-1.6h16.8c0.9,0,1.6,0.7,1.6,1.6v227.7
			C194.3,263.4,193.6,264.1,192.8,264.1z"/>
		<path class="st3" d="M227.9,264.1h-16.8c-0.9,0-1.6-0.7-1.6-1.6V34.9c0-0.9,0.7-1.6,1.6-1.6h16.8c0.9,0,1.6,0.7,1.6,1.6v227.7
			C229.5,263.4,228.8,264.1,227.9,264.1z"/>
		<path class="st3" d="M262,264.1h-16.8c-0.9,0-1.6-0.7-1.6-1.6V34.9c0-0.9,0.7-1.6,1.6-1.6H262c0.9,0,1.6,0.7,1.6,1.6v227.7
			C263.5,263.4,262.8,264.1,262,264.1z"/>
	</g>
</g>
<g id="TW_x5F_Logo">
	<g transform="translate(0.000000,2000.000000) scale(0.100000,-0.100000)">
		<path class="st4" d="M2094.8,19167.5c-25.2-11.8-43.1-36-56.2-76.1c-8.6-26.1-14.1-51-26.2-118.8c-8-45-16.3-88.9-16.9-89.9
			c-0.2-0.3-8.9,1.5-19.3,4c-63.4,15.5-125.1,22-179.4,18.8c-11.2-0.7-44-3.4-73-6c-78.7-7.2-81.7-7.4-116.9-7.4
			c-29.4,0-33.7,0.2-45.4,2.3c-19,3.3-48.4,10-94.7,21.5c-93.7,23.5-137.9,31.1-188.5,32.7c-23.9,0.7-41.6-0.5-74.5-5.2
			c-64.3-9.1-114.1-23.7-143.6-42c-4.8-3.1-19.5-13.1-32.6-22.4c-29.3-20.8-36.6-24.8-54-29.2c-101.2-26.1-207.9-33.5-289.9-20.1
			c-42.7,7-78.3,18.9-109,36.7c-22.4,12.8-47.7,35.9-60.6,55.4c-22.2,33.4-31.7,68-31.7,115c0,24.7,2.3,43.1,9.5,78.9
			c3.6,17.7,4.7,32.2,3.1,39.9c-1.1,5.1-5.9,10.3-10.8,11.5c-3.5,1-4.5,0.8-8.5-1.2c-2.9-1.4-6-4.1-8.2-7
			c-4.6-6.1-12.2-21.6-19-38.3c-25.7-63.6-32.5-122.9-20.3-178.8c27.8-128.6,163.1-222.1,340.4-235.5c20.9-1.6,43.6-1.3,72.5,0.9
			c25.2,1.9,33.2,3.1,66.5,9.4c7.2,1.4,13.5,2.6,13.9,2.6c0.4,0,0.3-1.9-0.3-4.1c-0.6-2.4-1-12.5-1-23
			c0.2-53.6,17.5-102.7,50.7-144.1c12.7-15.9,34.1-35.5,51.7-47.4c3.8-2.6,7-4.7,7.2-4.9c0.5-0.4-9.1-23.9-15-37
			c-14.7-32.1-31.9-61.5-73.1-124.8c-30.2-46.5-41.2-64.4-55.6-90l-5.1-9.2l2.4-11.1c13.4-61.7,55-139.3,110-206
			c12.9-15.6,39.7-42.3,49.7-49.8c14.2-10.4,29.6-16.1,54.2-19.9c13.9-2.2,54.3-2.5,65.9-0.5c20.2,3.6,36.1,9.9,43.8,17.3
			c3.2,3,4.7,5.6,5.9,9.5c3.2,10.7,1.4,30.8-3.8,45.3c-1.3,3.7-2.3,6.6-2.2,6.7c0.1,0.1,5.1-5.1,11.1-11.7
			c16.7-18.4,51-53.1,63.4-64c35.3-31.6,57.7-44.7,92.6-54.5c22.1-6.1,38.2-7.8,64.6-6.4c36.7,1.8,59.9,8.5,72.6,21.1
			c6.2,6.1,8.3,11.7,9,24c1.4,23-7.3,45.6-23.4,60.7c-12.6,11.9-23.3,16.3-46.5,18.9c-24.5,2.8-40.1,6.8-57.1,14.9
			c-29.5,14-56.8,40.1-89.1,85.3c-8.9,12.4-12.5,19.6-17,32.9c-10.8,32.5-9.8,70.7,3.5,122.6c4.4,17.6,7,26.2,24.5,81.9
			c3.7,11.9,7.8,25.6,9.1,30.2l2.2,8.4l8.6-1.3c116.2-17.5,184.5-24.3,258.6-25.7c43.8-0.8,96.6,2.4,135.6,8.2
			c9.2,1.4,17,2.1,17.5,1.7c2-2.1,27.9-70.7,37.5-99c9.6-28.7,12.8-41.7,13.4-54.4c1-18.5-2-49-9.6-98.1c-7.5-48.5-9.8-78.2-8-103
			c0.7-9,1.6-18.2,2.1-20.3c0.5-2.2,2.4-11.9,4.2-21.7c1.9-9.8,4.3-20.2,5.5-23.2c4.7-12.4,14.7-20.6,27.6-22.6
			c10.9-1.7,56.8-3.4,74.2-2.7l16.4,0.6l3.7-5.9c10.2-16.4,25.2-33.6,37.1-42.4c22.9-17,46.3-22.6,102.1-24.6
			c17.1-0.6,25.2-0.5,32.7,0.5c29.1,3.8,51.2,21.2,52.5,41.4c0.9,12.8-5.3,20.6-35,44c-33.5,26.1-37.9,31.5-53.1,62.5
			c-47.9,97.4-77.9,209.8-72.6,271.8c1.9,22.5,4.9,34.5,12.7,49.9c3.7,7.2,6.3,10.6,13.5,17.8c14.4,14.5,46.8,37.8,90.8,65.6
			c53.1,33.5,71.9,47,89.2,63.6c17.4,16.8,24.8,27.1,36.4,50.3c14.5,29.1,22.4,49.9,26.1,69.1l2.2,11.2l8.4-6.9
			c25.3-20.8,38.9-26.2,63.2-25.3c20.3,0.9,39.1,7.8,58.7,21.6c11,7.6,33.2,29.6,42.9,42.2c27.8,36.2,49.1,77.4,62.5,120.9
			c18.3,59.2,23.4,95.5,20,142.4c-7.5,104.3,11.7,178.7,59,228.8c5,5.3,11.6,11.6,14.7,14.1c10.4,8.2,10,8-46.7-22
			c-82.8-43.9-126.4-61.4-172.4-69.3l-9-1.5l-21.1,5.9c-46.3,13.1-79.7,18.7-110.8,18.7h-14l-7.3,10c-30,41.1-36.9,49.7-50.4,62.7
			c-12.1,11.6-25.9,20.3-36.3,23.1c-2.5,0.6-5.1,1.3-5.9,1.5C2102.7,19170.6,2098.8,19169.4,2094.8,19167.5z M1090.9,18240.2
			c-1.9-24.7-1.6-62.9,0.6-75.3c3.7-22.2,1-18,33.1-50.3c23.4-23.7,49.6-51.5,76.1-80.6c2.3-2.7,3.7-4.7,3.2-4.7s-4.5,1.1-8.8,2.4
			c-8.4,2.7-21.2,5.9-27.4,7c-5.7,1-19.3,0.8-22.4-0.4c-1.9-0.7-4.1-0.5-8.9,1c-7.1,2.1-5.7,0.8-30.4,27.9
			c-26.6,29.4-38.2,44.6-45.5,60.3c-5.3,11.2-7.2,19-7.1,29.6c0,7.9,0.5,10.4,4.6,22.5c2.6,7.5,6.1,17.1,7.9,21.2
			c6.3,15.1,25.7,57.3,26.1,56.9C1092.1,18257.5,1091.7,18249.7,1090.9,18240.2z"/>
	</g>
</g>
</svg>
